<mxfile host="app.diagrams.net" modified="2022-06-01T01:38:38.148Z" agent="5.0 (X11; Linux x86_64) AppleWebKit/537.36 (KHTML, like Gecko) Chrome/92.0.4515.159 Safari/537.36" etag="rARCg5i8cP52L5zBkIu4" version="18.1.3" type="github">
  <diagram id="uhejsNM4LRPAo90Y3opQ" name="Page-1">
    <mxGraphModel dx="1626" dy="942" grid="1" gridSize="10" guides="1" tooltips="1" connect="1" arrows="1" fold="1" page="1" pageScale="1" pageWidth="827" pageHeight="1169" math="0" shadow="0">
      <root>
        <mxCell id="0" />
        <mxCell id="1" parent="0" />
        <mxCell id="uDhx3QkCESWmsz2Zceld-8" value="" style="edgeStyle=orthogonalEdgeStyle;rounded=0;orthogonalLoop=1;jettySize=auto;html=1;fontSize=8;" edge="1" parent="1" source="uDhx3QkCESWmsz2Zceld-6" target="uDhx3QkCESWmsz2Zceld-7">
          <mxGeometry relative="1" as="geometry" />
        </mxCell>
        <mxCell id="uDhx3QkCESWmsz2Zceld-6" value="开始" style="rounded=0;whiteSpace=wrap;html=1;fontSize=8;fillColor=none;" vertex="1" parent="1">
          <mxGeometry x="80" y="200" width="120" height="40" as="geometry" />
        </mxCell>
        <mxCell id="uDhx3QkCESWmsz2Zceld-10" value="" style="edgeStyle=orthogonalEdgeStyle;rounded=0;orthogonalLoop=1;jettySize=auto;html=1;fontSize=8;" edge="1" parent="1" source="uDhx3QkCESWmsz2Zceld-7" target="uDhx3QkCESWmsz2Zceld-9">
          <mxGeometry relative="1" as="geometry" />
        </mxCell>
        <mxCell id="uDhx3QkCESWmsz2Zceld-7" value="加载默认daemon.conf配置" style="rounded=0;whiteSpace=wrap;html=1;fontSize=8;fillColor=none;" vertex="1" parent="1">
          <mxGeometry x="80" y="280" width="120" height="40" as="geometry" />
        </mxCell>
        <mxCell id="uDhx3QkCESWmsz2Zceld-12" value="" style="edgeStyle=orthogonalEdgeStyle;rounded=0;orthogonalLoop=1;jettySize=auto;html=1;fontSize=8;" edge="1" parent="1" source="uDhx3QkCESWmsz2Zceld-9" target="uDhx3QkCESWmsz2Zceld-11">
          <mxGeometry relative="1" as="geometry" />
        </mxCell>
        <mxCell id="uDhx3QkCESWmsz2Zceld-9" value="读取声卡名称" style="rounded=0;whiteSpace=wrap;html=1;fontSize=8;fillColor=none;" vertex="1" parent="1">
          <mxGeometry x="80" y="360" width="120" height="40" as="geometry" />
        </mxCell>
        <mxCell id="uDhx3QkCESWmsz2Zceld-14" value="" style="edgeStyle=orthogonalEdgeStyle;rounded=0;orthogonalLoop=1;jettySize=auto;html=1;fontSize=8;" edge="1" parent="1" source="uDhx3QkCESWmsz2Zceld-11" target="uDhx3QkCESWmsz2Zceld-13">
          <mxGeometry relative="1" as="geometry" />
        </mxCell>
        <mxCell id="uDhx3QkCESWmsz2Zceld-11" value="读取厂商名称" style="rounded=0;whiteSpace=wrap;html=1;fontSize=8;fillColor=none;" vertex="1" parent="1">
          <mxGeometry x="80" y="440" width="120" height="40" as="geometry" />
        </mxCell>
        <mxCell id="uDhx3QkCESWmsz2Zceld-16" value="" style="edgeStyle=orthogonalEdgeStyle;rounded=0;orthogonalLoop=1;jettySize=auto;html=1;fontSize=8;" edge="1" parent="1" source="uDhx3QkCESWmsz2Zceld-13" target="uDhx3QkCESWmsz2Zceld-15">
          <mxGeometry relative="1" as="geometry" />
        </mxCell>
        <mxCell id="uDhx3QkCESWmsz2Zceld-13" value="加载差异化配置文件" style="rounded=0;whiteSpace=wrap;html=1;fontSize=8;fillColor=none;" vertex="1" parent="1">
          <mxGeometry x="80" y="520" width="120" height="40" as="geometry" />
        </mxCell>
        <mxCell id="uDhx3QkCESWmsz2Zceld-18" value="" style="edgeStyle=orthogonalEdgeStyle;rounded=0;orthogonalLoop=1;jettySize=auto;html=1;fontSize=8;" edge="1" parent="1" source="uDhx3QkCESWmsz2Zceld-15" target="uDhx3QkCESWmsz2Zceld-17">
          <mxGeometry relative="1" as="geometry" />
        </mxCell>
        <mxCell id="uDhx3QkCESWmsz2Zceld-15" value="进行后续解析和处理" style="rounded=0;whiteSpace=wrap;html=1;fontSize=8;fillColor=none;" vertex="1" parent="1">
          <mxGeometry x="80" y="600" width="120" height="40" as="geometry" />
        </mxCell>
        <mxCell id="uDhx3QkCESWmsz2Zceld-17" value="结束" style="rounded=0;whiteSpace=wrap;html=1;fontSize=8;fillColor=none;" vertex="1" parent="1">
          <mxGeometry x="80" y="680" width="120" height="40" as="geometry" />
        </mxCell>
        <mxCell id="uDhx3QkCESWmsz2Zceld-19" value="" style="rounded=0;whiteSpace=wrap;html=1;fontSize=8;fillColor=none;dashed=1;" vertex="1" parent="1">
          <mxGeometry x="50" y="340" width="300" height="230" as="geometry" />
        </mxCell>
        <mxCell id="uDhx3QkCESWmsz2Zceld-20" value="新增逻辑" style="ellipse;shape=cloud;whiteSpace=wrap;html=1;rounded=0;dashed=1;fontSize=8;fillColor=none;" vertex="1" parent="1">
          <mxGeometry x="220" y="400" width="120" height="80" as="geometry" />
        </mxCell>
        <mxCell id="uDhx3QkCESWmsz2Zceld-36" value="" style="edgeStyle=orthogonalEdgeStyle;rounded=0;orthogonalLoop=1;jettySize=auto;html=1;fontSize=8;" edge="1" parent="1" source="uDhx3QkCESWmsz2Zceld-37" target="uDhx3QkCESWmsz2Zceld-39">
          <mxGeometry relative="1" as="geometry" />
        </mxCell>
        <mxCell id="uDhx3QkCESWmsz2Zceld-37" value="开始" style="rounded=0;whiteSpace=wrap;html=1;fontSize=8;fillColor=none;" vertex="1" parent="1">
          <mxGeometry x="520" y="140" width="120" height="40" as="geometry" />
        </mxCell>
        <mxCell id="uDhx3QkCESWmsz2Zceld-80" value="" style="edgeStyle=orthogonalEdgeStyle;rounded=0;orthogonalLoop=1;jettySize=auto;html=1;fontSize=12;" edge="1" parent="1" source="uDhx3QkCESWmsz2Zceld-39" target="uDhx3QkCESWmsz2Zceld-78">
          <mxGeometry relative="1" as="geometry" />
        </mxCell>
        <mxCell id="uDhx3QkCESWmsz2Zceld-39" value="加载默认daemon.conf配置" style="rounded=0;whiteSpace=wrap;html=1;fontSize=8;fillColor=none;" vertex="1" parent="1">
          <mxGeometry x="520" y="210" width="120" height="40" as="geometry" />
        </mxCell>
        <mxCell id="uDhx3QkCESWmsz2Zceld-40" value="" style="edgeStyle=orthogonalEdgeStyle;rounded=0;orthogonalLoop=1;jettySize=auto;html=1;fontSize=8;" edge="1" parent="1" source="uDhx3QkCESWmsz2Zceld-41" target="uDhx3QkCESWmsz2Zceld-43">
          <mxGeometry relative="1" as="geometry" />
        </mxCell>
        <mxCell id="uDhx3QkCESWmsz2Zceld-41" value="dlopen加载alsa-util.so" style="rounded=0;whiteSpace=wrap;html=1;fontSize=8;fillColor=none;" vertex="1" parent="1">
          <mxGeometry x="690" y="280" width="190" height="40" as="geometry" />
        </mxCell>
        <mxCell id="uDhx3QkCESWmsz2Zceld-54" value="" style="edgeStyle=orthogonalEdgeStyle;rounded=0;orthogonalLoop=1;jettySize=auto;html=1;fontSize=8;" edge="1" parent="1" source="uDhx3QkCESWmsz2Zceld-43" target="uDhx3QkCESWmsz2Zceld-53">
          <mxGeometry relative="1" as="geometry" />
        </mxCell>
        <mxCell id="uDhx3QkCESWmsz2Zceld-43" value="dlsym获取函数&lt;span style=&quot;font-family: Calibri; font-size: 10.5pt; text-align: justify; text-indent: 24pt; background-color: initial;&quot;&gt;pa_alsa_get_card_index()&lt;br&gt;&lt;/span&gt;&lt;span style=&quot;font-family: Calibri; font-size: 10.5pt; text-align: justify; text-indent: 24pt; background-color: initial;&quot;&gt;pa_alsa_get_card_name()&lt;/span&gt;&lt;span style=&quot;font-family: Calibri; font-size: 10.5pt; text-align: justify; text-indent: 24pt; background-color: initial;&quot;&gt;&lt;br&gt;&lt;/span&gt;" style="rounded=0;whiteSpace=wrap;html=1;fontSize=8;fillColor=none;" vertex="1" parent="1">
          <mxGeometry x="690" y="350" width="190" height="60" as="geometry" />
        </mxCell>
        <mxCell id="uDhx3QkCESWmsz2Zceld-46" value="" style="edgeStyle=orthogonalEdgeStyle;rounded=0;orthogonalLoop=1;jettySize=auto;html=1;fontSize=8;" edge="1" parent="1" source="uDhx3QkCESWmsz2Zceld-47" target="uDhx3QkCESWmsz2Zceld-48">
          <mxGeometry relative="1" as="geometry" />
        </mxCell>
        <mxCell id="uDhx3QkCESWmsz2Zceld-47" value="进行后续解析和处理" style="rounded=0;whiteSpace=wrap;html=1;fontSize=8;fillColor=none;" vertex="1" parent="1">
          <mxGeometry x="520" y="1360" width="120" height="40" as="geometry" />
        </mxCell>
        <mxCell id="uDhx3QkCESWmsz2Zceld-48" value="结束" style="rounded=0;whiteSpace=wrap;html=1;fontSize=8;fillColor=none;" vertex="1" parent="1">
          <mxGeometry x="520" y="1440" width="120" height="40" as="geometry" />
        </mxCell>
        <mxCell id="uDhx3QkCESWmsz2Zceld-56" value="" style="edgeStyle=orthogonalEdgeStyle;rounded=0;orthogonalLoop=1;jettySize=auto;html=1;fontSize=12;" edge="1" parent="1" source="uDhx3QkCESWmsz2Zceld-53" target="uDhx3QkCESWmsz2Zceld-55">
          <mxGeometry relative="1" as="geometry" />
        </mxCell>
        <mxCell id="uDhx3QkCESWmsz2Zceld-53" value="&lt;span style=&quot;font-family: Calibri; font-size: 14px; text-align: justify; text-indent: 32px;&quot;&gt;pa_alsa_get_card_index()&lt;/span&gt;&lt;span style=&quot;font-family: Calibri; text-align: justify; text-indent: 24pt; background-color: initial;&quot;&gt;&lt;font style=&quot;font-size: 12px;&quot;&gt;&lt;br&gt;获取声卡索引&lt;/font&gt;&lt;br&gt;&lt;/span&gt;" style="rounded=0;whiteSpace=wrap;html=1;fontSize=8;fillColor=none;" vertex="1" parent="1">
          <mxGeometry x="690" y="440" width="190" height="40" as="geometry" />
        </mxCell>
        <mxCell id="uDhx3QkCESWmsz2Zceld-58" value="" style="edgeStyle=orthogonalEdgeStyle;rounded=0;orthogonalLoop=1;jettySize=auto;html=1;fontSize=12;" edge="1" parent="1" source="uDhx3QkCESWmsz2Zceld-55" target="uDhx3QkCESWmsz2Zceld-57">
          <mxGeometry relative="1" as="geometry" />
        </mxCell>
        <mxCell id="uDhx3QkCESWmsz2Zceld-55" value="&lt;span style=&quot;font-family: Calibri; font-size: 14px; text-align: justify; text-indent: 32px;&quot;&gt;pa_alsa_get_card_name()&lt;/span&gt;&lt;span style=&quot;font-family: Calibri; text-align: justify; text-indent: 24pt; background-color: initial;&quot;&gt;&lt;font style=&quot;font-size: 12px;&quot;&gt;&lt;br&gt;获取声卡名称&lt;/font&gt;&lt;br&gt;&lt;/span&gt;" style="rounded=0;whiteSpace=wrap;html=1;fontSize=8;fillColor=none;" vertex="1" parent="1">
          <mxGeometry x="690" y="510" width="190" height="40" as="geometry" />
        </mxCell>
        <mxCell id="uDhx3QkCESWmsz2Zceld-60" value="" style="edgeStyle=orthogonalEdgeStyle;rounded=0;orthogonalLoop=1;jettySize=auto;html=1;fontSize=12;entryX=0.5;entryY=0;entryDx=0;entryDy=0;" edge="1" parent="1" source="uDhx3QkCESWmsz2Zceld-57" target="uDhx3QkCESWmsz2Zceld-61">
          <mxGeometry relative="1" as="geometry">
            <mxPoint x="785.0000000000002" y="650" as="targetPoint" />
          </mxGeometry>
        </mxCell>
        <mxCell id="uDhx3QkCESWmsz2Zceld-57" value="&lt;span style=&quot;font-family: Calibri; text-align: justify; text-indent: 24pt; background-color: initial;&quot;&gt;&lt;font style=&quot;font-size: 12px;&quot;&gt;在id_table中查找是否符合&lt;/font&gt;&lt;br&gt;&lt;/span&gt;" style="rounded=0;whiteSpace=wrap;html=1;fontSize=8;fillColor=none;" vertex="1" parent="1">
          <mxGeometry x="690" y="584.5" width="190" height="40" as="geometry" />
        </mxCell>
        <mxCell id="uDhx3QkCESWmsz2Zceld-66" value="" style="edgeStyle=orthogonalEdgeStyle;orthogonalLoop=1;jettySize=auto;html=1;fontSize=12;" edge="1" parent="1" source="uDhx3QkCESWmsz2Zceld-61" target="uDhx3QkCESWmsz2Zceld-65">
          <mxGeometry relative="1" as="geometry" />
        </mxCell>
        <mxCell id="uDhx3QkCESWmsz2Zceld-71" value="" style="edgeStyle=orthogonalEdgeStyle;orthogonalLoop=1;jettySize=auto;html=1;fontSize=12;entryX=0.5;entryY=0;entryDx=0;entryDy=0;rounded=0;" edge="1" parent="1" source="uDhx3QkCESWmsz2Zceld-61" target="uDhx3QkCESWmsz2Zceld-72">
          <mxGeometry relative="1" as="geometry">
            <mxPoint x="955" y="690" as="targetPoint" />
          </mxGeometry>
        </mxCell>
        <mxCell id="uDhx3QkCESWmsz2Zceld-61" value="查找到指定声卡" style="rhombus;whiteSpace=wrap;html=1;rounded=0;fontSize=12;fillColor=none;" vertex="1" parent="1">
          <mxGeometry x="710" y="644.5" width="150" height="60" as="geometry" />
        </mxCell>
        <mxCell id="uDhx3QkCESWmsz2Zceld-69" value="" style="edgeStyle=orthogonalEdgeStyle;orthogonalLoop=1;jettySize=auto;html=1;fontSize=12;" edge="1" parent="1" source="uDhx3QkCESWmsz2Zceld-65" target="uDhx3QkCESWmsz2Zceld-68">
          <mxGeometry relative="1" as="geometry" />
        </mxCell>
        <mxCell id="uDhx3QkCESWmsz2Zceld-65" value="&lt;span style=&quot;font-family: Calibri; text-align: justify; text-indent: 24pt; background-color: initial;&quot;&gt;&lt;font style=&quot;font-size: 12px;&quot;&gt;strncpy拷贝声卡名称&lt;/font&gt;&lt;br&gt;&lt;/span&gt;" style="rounded=0;whiteSpace=wrap;html=1;fontSize=8;fillColor=none;" vertex="1" parent="1">
          <mxGeometry x="690" y="730" width="190" height="40" as="geometry" />
        </mxCell>
        <mxCell id="uDhx3QkCESWmsz2Zceld-67" value="是" style="text;html=1;strokeColor=none;fillColor=none;align=center;verticalAlign=middle;whiteSpace=wrap;rounded=0;fontSize=12;" vertex="1" parent="1">
          <mxGeometry x="787" y="704.5" width="40" height="30" as="geometry" />
        </mxCell>
        <mxCell id="uDhx3QkCESWmsz2Zceld-68" value="&lt;span style=&quot;font-family: Calibri; text-align: justify; text-indent: 24pt; background-color: initial;&quot;&gt;&lt;font style=&quot;font-size: 12px;&quot;&gt;return返回&lt;/font&gt;&lt;br&gt;&lt;/span&gt;" style="rounded=0;whiteSpace=wrap;html=1;fontSize=8;fillColor=none;" vertex="1" parent="1">
          <mxGeometry x="690" y="800" width="190" height="40" as="geometry" />
        </mxCell>
        <mxCell id="uDhx3QkCESWmsz2Zceld-72" value="&lt;font style=&quot;font-size: 12px;&quot;&gt;不做处理&lt;/font&gt;" style="rounded=0;whiteSpace=wrap;html=1;fontSize=8;fillColor=none;" vertex="1" parent="1">
          <mxGeometry x="920" y="730" width="80" height="40" as="geometry" />
        </mxCell>
        <mxCell id="uDhx3QkCESWmsz2Zceld-77" value="" style="endArrow=classic;html=1;rounded=0;fontSize=12;exitX=0.5;exitY=1;exitDx=0;exitDy=0;entryX=1;entryY=0.5;entryDx=0;entryDy=0;" edge="1" parent="1" source="uDhx3QkCESWmsz2Zceld-72" target="uDhx3QkCESWmsz2Zceld-68">
          <mxGeometry width="50" height="50" relative="1" as="geometry">
            <mxPoint x="860" y="720" as="sourcePoint" />
            <mxPoint x="790" y="820" as="targetPoint" />
            <Array as="points">
              <mxPoint x="960" y="820" />
            </Array>
          </mxGeometry>
        </mxCell>
        <mxCell id="uDhx3QkCESWmsz2Zceld-79" value="" style="edgeStyle=orthogonalEdgeStyle;rounded=0;orthogonalLoop=1;jettySize=auto;html=1;fontSize=12;" edge="1" parent="1" source="uDhx3QkCESWmsz2Zceld-78" target="uDhx3QkCESWmsz2Zceld-41">
          <mxGeometry relative="1" as="geometry" />
        </mxCell>
        <mxCell id="uDhx3QkCESWmsz2Zceld-78" value="获取声卡名称" style="rounded=0;whiteSpace=wrap;html=1;fontSize=8;fillColor=none;" vertex="1" parent="1">
          <mxGeometry x="520" y="280" width="120" height="40" as="geometry" />
        </mxCell>
        <mxCell id="uDhx3QkCESWmsz2Zceld-89" value="" style="edgeStyle=orthogonalEdgeStyle;rounded=0;orthogonalLoop=1;jettySize=auto;html=1;fontSize=12;" edge="1" parent="1" source="uDhx3QkCESWmsz2Zceld-81" target="uDhx3QkCESWmsz2Zceld-88">
          <mxGeometry relative="1" as="geometry" />
        </mxCell>
        <mxCell id="uDhx3QkCESWmsz2Zceld-81" value="获取厂商名称" style="rounded=0;whiteSpace=wrap;html=1;fontSize=8;fillColor=none;" vertex="1" parent="1">
          <mxGeometry x="520" y="860" width="120" height="40" as="geometry" />
        </mxCell>
        <mxCell id="uDhx3QkCESWmsz2Zceld-85" value="" style="endArrow=classic;html=1;rounded=0;fontSize=12;exitX=0;exitY=0.5;exitDx=0;exitDy=0;" edge="1" parent="1" source="uDhx3QkCESWmsz2Zceld-68">
          <mxGeometry width="50" height="50" relative="1" as="geometry">
            <mxPoint x="530" y="930" as="sourcePoint" />
            <mxPoint x="580" y="860" as="targetPoint" />
            <Array as="points">
              <mxPoint x="580" y="820" />
            </Array>
          </mxGeometry>
        </mxCell>
        <mxCell id="uDhx3QkCESWmsz2Zceld-91" value="" style="edgeStyle=orthogonalEdgeStyle;rounded=0;orthogonalLoop=1;jettySize=auto;html=1;fontSize=12;" edge="1" parent="1" source="uDhx3QkCESWmsz2Zceld-88" target="uDhx3QkCESWmsz2Zceld-90">
          <mxGeometry relative="1" as="geometry" />
        </mxCell>
        <mxCell id="uDhx3QkCESWmsz2Zceld-88" value="在id_table中查找是否符合" style="rounded=0;whiteSpace=wrap;html=1;fontSize=8;fillColor=none;" vertex="1" parent="1">
          <mxGeometry x="690" y="860" width="190" height="40" as="geometry" />
        </mxCell>
        <mxCell id="uDhx3QkCESWmsz2Zceld-96" value="" style="edgeStyle=orthogonalEdgeStyle;rounded=0;orthogonalLoop=1;jettySize=auto;html=1;fontSize=12;" edge="1" parent="1" source="uDhx3QkCESWmsz2Zceld-90" target="uDhx3QkCESWmsz2Zceld-95">
          <mxGeometry relative="1" as="geometry" />
        </mxCell>
        <mxCell id="uDhx3QkCESWmsz2Zceld-90" value="查找到指定声卡" style="rhombus;whiteSpace=wrap;html=1;rounded=0;fontSize=12;fillColor=none;" vertex="1" parent="1">
          <mxGeometry x="710" y="930" width="150" height="60" as="geometry" />
        </mxCell>
        <mxCell id="uDhx3QkCESWmsz2Zceld-92" value="&lt;font style=&quot;font-size: 12px;&quot;&gt;不做处理&lt;/font&gt;" style="rounded=0;whiteSpace=wrap;html=1;fontSize=8;fillColor=none;" vertex="1" parent="1">
          <mxGeometry x="920" y="1010" width="80" height="40" as="geometry" />
        </mxCell>
        <mxCell id="uDhx3QkCESWmsz2Zceld-104" value="" style="edgeStyle=orthogonalEdgeStyle;rounded=0;orthogonalLoop=1;jettySize=auto;html=1;fontSize=12;" edge="1" parent="1" source="uDhx3QkCESWmsz2Zceld-95" target="uDhx3QkCESWmsz2Zceld-103">
          <mxGeometry relative="1" as="geometry" />
        </mxCell>
        <mxCell id="uDhx3QkCESWmsz2Zceld-95" value="&lt;span style=&quot;font-family: Calibri; text-align: justify; text-indent: 24pt; background-color: initial;&quot;&gt;&lt;font style=&quot;font-size: 12px;&quot;&gt;strncpy拷贝声卡名称&lt;/font&gt;&lt;br&gt;&lt;/span&gt;" style="rounded=0;whiteSpace=wrap;html=1;fontSize=8;fillColor=none;" vertex="1" parent="1">
          <mxGeometry x="690" y="1010" width="190" height="40" as="geometry" />
        </mxCell>
        <mxCell id="uDhx3QkCESWmsz2Zceld-97" value="" style="endArrow=classic;html=1;rounded=0;fontSize=12;entryX=0.5;entryY=0;entryDx=0;entryDy=0;" edge="1" parent="1" target="uDhx3QkCESWmsz2Zceld-92">
          <mxGeometry width="50" height="50" relative="1" as="geometry">
            <mxPoint x="860" y="960" as="sourcePoint" />
            <mxPoint x="910" y="910" as="targetPoint" />
            <Array as="points">
              <mxPoint x="960" y="960" />
            </Array>
          </mxGeometry>
        </mxCell>
        <mxCell id="uDhx3QkCESWmsz2Zceld-98" value="是" style="text;html=1;strokeColor=none;fillColor=none;align=center;verticalAlign=middle;whiteSpace=wrap;rounded=0;fontSize=12;" vertex="1" parent="1">
          <mxGeometry x="787" y="980" width="40" height="30" as="geometry" />
        </mxCell>
        <mxCell id="uDhx3QkCESWmsz2Zceld-99" value="否" style="text;html=1;strokeColor=none;fillColor=none;align=center;verticalAlign=middle;whiteSpace=wrap;rounded=0;fontSize=12;" vertex="1" parent="1">
          <mxGeometry x="850" y="650" width="40" height="30" as="geometry" />
        </mxCell>
        <mxCell id="uDhx3QkCESWmsz2Zceld-100" value="否" style="text;html=1;strokeColor=none;fillColor=none;align=center;verticalAlign=middle;whiteSpace=wrap;rounded=0;fontSize=12;" vertex="1" parent="1">
          <mxGeometry x="860" y="930" width="40" height="30" as="geometry" />
        </mxCell>
        <mxCell id="uDhx3QkCESWmsz2Zceld-103" value="&lt;span style=&quot;font-family: Calibri; text-align: justify; text-indent: 24pt; background-color: initial;&quot;&gt;&lt;font style=&quot;font-size: 12px;&quot;&gt;return返回&lt;/font&gt;&lt;br&gt;&lt;/span&gt;" style="rounded=0;whiteSpace=wrap;html=1;fontSize=8;fillColor=none;" vertex="1" parent="1">
          <mxGeometry x="690" y="1090" width="190" height="40" as="geometry" />
        </mxCell>
        <mxCell id="uDhx3QkCESWmsz2Zceld-105" value="" style="endArrow=classic;html=1;rounded=0;fontSize=12;entryX=1;entryY=0.5;entryDx=0;entryDy=0;exitX=0.5;exitY=1;exitDx=0;exitDy=0;" edge="1" parent="1" source="uDhx3QkCESWmsz2Zceld-92" target="uDhx3QkCESWmsz2Zceld-103">
          <mxGeometry width="50" height="50" relative="1" as="geometry">
            <mxPoint x="1060" y="1110" as="sourcePoint" />
            <mxPoint x="1110" y="1060" as="targetPoint" />
            <Array as="points">
              <mxPoint x="960" y="1110" />
            </Array>
          </mxGeometry>
        </mxCell>
        <mxCell id="uDhx3QkCESWmsz2Zceld-110" value="" style="edgeStyle=orthogonalEdgeStyle;rounded=0;orthogonalLoop=1;jettySize=auto;html=1;fontSize=12;" edge="1" parent="1" source="uDhx3QkCESWmsz2Zceld-107" target="uDhx3QkCESWmsz2Zceld-109">
          <mxGeometry relative="1" as="geometry" />
        </mxCell>
        <mxCell id="uDhx3QkCESWmsz2Zceld-107" value="配置文件再加载" style="rounded=0;whiteSpace=wrap;html=1;fontSize=8;fillColor=none;" vertex="1" parent="1">
          <mxGeometry x="520" y="1160" width="120" height="40" as="geometry" />
        </mxCell>
        <mxCell id="uDhx3QkCESWmsz2Zceld-108" value="" style="endArrow=classic;html=1;rounded=0;fontSize=12;entryX=0.5;entryY=0;entryDx=0;entryDy=0;exitX=0;exitY=0.5;exitDx=0;exitDy=0;" edge="1" parent="1" source="uDhx3QkCESWmsz2Zceld-103" target="uDhx3QkCESWmsz2Zceld-107">
          <mxGeometry width="50" height="50" relative="1" as="geometry">
            <mxPoint x="820" y="1280" as="sourcePoint" />
            <mxPoint x="870" y="1230" as="targetPoint" />
            <Array as="points">
              <mxPoint x="580" y="1110" />
            </Array>
          </mxGeometry>
        </mxCell>
        <mxCell id="uDhx3QkCESWmsz2Zceld-112" value="" style="edgeStyle=orthogonalEdgeStyle;rounded=0;orthogonalLoop=1;jettySize=auto;html=1;fontSize=12;" edge="1" parent="1" source="uDhx3QkCESWmsz2Zceld-109" target="uDhx3QkCESWmsz2Zceld-111">
          <mxGeometry relative="1" as="geometry" />
        </mxCell>
        <mxCell id="uDhx3QkCESWmsz2Zceld-109" value="&lt;span style=&quot;font-family: Calibri; text-align: justify; text-indent: 24pt; background-color: initial;&quot;&gt;通过厂商名、声卡名拼接配置文件路径&lt;br&gt;&lt;/span&gt;" style="rounded=0;whiteSpace=wrap;html=1;fontSize=8;fillColor=none;" vertex="1" parent="1">
          <mxGeometry x="690" y="1160" width="190" height="40" as="geometry" />
        </mxCell>
        <mxCell id="uDhx3QkCESWmsz2Zceld-114" value="" style="edgeStyle=orthogonalEdgeStyle;rounded=0;orthogonalLoop=1;jettySize=auto;html=1;fontSize=12;" edge="1" parent="1" source="uDhx3QkCESWmsz2Zceld-111" target="uDhx3QkCESWmsz2Zceld-113">
          <mxGeometry relative="1" as="geometry" />
        </mxCell>
        <mxCell id="uDhx3QkCESWmsz2Zceld-111" value="&lt;span style=&quot;text-align: justify; text-indent: 24pt; background-color: initial;&quot;&gt;&lt;font face=&quot;Calibri&quot;&gt;调用&lt;span style=&quot;font-size: 8px;&quot;&gt;pa_daemon_conf_load加载&lt;/span&gt;&lt;/font&gt;&lt;br&gt;&lt;/span&gt;" style="rounded=0;whiteSpace=wrap;html=1;fontSize=8;fillColor=none;" vertex="1" parent="1">
          <mxGeometry x="690" y="1230" width="190" height="40" as="geometry" />
        </mxCell>
        <mxCell id="uDhx3QkCESWmsz2Zceld-113" value="&lt;span style=&quot;text-align: justify; text-indent: 24pt; background-color: initial;&quot;&gt;&lt;font face=&quot;Calibri&quot;&gt;return返回&lt;/font&gt;&lt;br&gt;&lt;/span&gt;" style="rounded=0;whiteSpace=wrap;html=1;fontSize=8;fillColor=none;" vertex="1" parent="1">
          <mxGeometry x="690" y="1300" width="190" height="40" as="geometry" />
        </mxCell>
        <mxCell id="uDhx3QkCESWmsz2Zceld-115" value="" style="endArrow=classic;html=1;rounded=0;fontSize=12;entryX=0.5;entryY=0;entryDx=0;entryDy=0;exitX=0;exitY=0.5;exitDx=0;exitDy=0;" edge="1" parent="1" source="uDhx3QkCESWmsz2Zceld-113" target="uDhx3QkCESWmsz2Zceld-47">
          <mxGeometry width="50" height="50" relative="1" as="geometry">
            <mxPoint x="350" y="1340" as="sourcePoint" />
            <mxPoint x="400" y="1290" as="targetPoint" />
            <Array as="points">
              <mxPoint x="580" y="1320" />
            </Array>
          </mxGeometry>
        </mxCell>
        <mxCell id="uDhx3QkCESWmsz2Zceld-116" value="" style="endArrow=classic;html=1;rounded=0;fontSize=12;entryX=0.5;entryY=0;entryDx=0;entryDy=0;exitX=0.5;exitY=1;exitDx=0;exitDy=0;dashed=1;" edge="1" parent="1" source="uDhx3QkCESWmsz2Zceld-78" target="uDhx3QkCESWmsz2Zceld-81">
          <mxGeometry width="50" height="50" relative="1" as="geometry">
            <mxPoint x="530" y="450" as="sourcePoint" />
            <mxPoint x="580" y="400" as="targetPoint" />
          </mxGeometry>
        </mxCell>
        <mxCell id="uDhx3QkCESWmsz2Zceld-117" value="" style="endArrow=classic;html=1;rounded=0;dashed=1;fontSize=12;exitX=0.5;exitY=1;exitDx=0;exitDy=0;" edge="1" parent="1" source="uDhx3QkCESWmsz2Zceld-81">
          <mxGeometry width="50" height="50" relative="1" as="geometry">
            <mxPoint x="380" y="1060" as="sourcePoint" />
            <mxPoint x="580" y="1160" as="targetPoint" />
          </mxGeometry>
        </mxCell>
        <mxCell id="uDhx3QkCESWmsz2Zceld-118" value="" style="endArrow=classic;html=1;rounded=0;dashed=1;fontSize=12;exitX=0.5;exitY=1;exitDx=0;exitDy=0;" edge="1" parent="1" source="uDhx3QkCESWmsz2Zceld-107">
          <mxGeometry width="50" height="50" relative="1" as="geometry">
            <mxPoint x="363" y="1310" as="sourcePoint" />
            <mxPoint x="580" y="1360" as="targetPoint" />
          </mxGeometry>
        </mxCell>
      </root>
    </mxGraphModel>
  </diagram>
</mxfile>
